<?xml version="1.0" encoding="UTF-8" standalone="no"?>
<!DOCTYPE svg PUBLIC "-//W3C//DTD SVG 1.1//EN"
 "http://www.w3.org/Graphics/SVG/1.1/DTD/svg11.dtd">
<!-- Generated by graphviz version 12.1.1 (20240910.0053)
 -->
<!-- Title: INFRA Pages: 1 -->
<svg width="1516pt" height="296pt"
 viewBox="0.00 0.00 1516.01 296.00" xmlns="http://www.w3.org/2000/svg" xmlns:xlink="http://www.w3.org/1999/xlink">
<g id="graph0" class="graph" transform="scale(1 1) rotate(0) translate(4 292)">
<title>INFRA</title>
<polygon fill="white" stroke="none" points="-4,4 -4,-292 1512.01,-292 1512.01,4 -4,4"/>
<!-- SheetsDataTable -->
<g id="node1" class="node">
<title>SheetsDataTable</title>
<path fill="#ffcfb3" stroke="black" stroke-width="2" d="M179.37,-173.45C179.37,-177.07 139.17,-180 89.69,-180 40.2,-180 0,-177.07 0,-173.45 0,-173.45 0,-114.55 0,-114.55 0,-110.93 40.2,-108 89.69,-108 139.17,-108 179.37,-110.93 179.37,-114.55 179.37,-114.55 179.37,-173.45 179.37,-173.45"/>
<path fill="none" stroke="black" stroke-width="2" d="M179.37,-173.45C179.37,-169.84 139.17,-166.91 89.69,-166.91 40.2,-166.91 0,-169.84 0,-173.45"/>
<text text-anchor="middle" x="89.69" y="-148.2" font-family="Arial" font-size="14.00">SheetsDataTable</text>
<text text-anchor="middle" x="89.69" y="-131.4" font-family="Arial" font-size="14.00">(AWS::DynamoDB::Table)</text>
</g>
<!-- DataSourcesTable -->
<g id="node2" class="node">
<title>DataSourcesTable</title>
<path fill="#ffcfb3" stroke="black" stroke-width="2" d="M579.37,-281.45C579.37,-285.07 539.17,-288 489.69,-288 440.2,-288 400,-285.07 400,-281.45 400,-281.45 400,-222.55 400,-222.55 400,-218.93 440.2,-216 489.69,-216 539.17,-216 579.37,-218.93 579.37,-222.55 579.37,-222.55 579.37,-281.45 579.37,-281.45"/>
<path fill="none" stroke="black" stroke-width="2" d="M579.37,-281.45C579.37,-277.84 539.17,-274.91 489.69,-274.91 440.2,-274.91 400,-277.84 400,-281.45"/>
<text text-anchor="middle" x="489.69" y="-256.2" font-family="Arial" font-size="14.00">DataSourcesTable</text>
<text text-anchor="middle" x="489.69" y="-239.4" font-family="Arial" font-size="14.00">(AWS::DynamoDB::Table)</text>
</g>
<!-- ConnectionsTable -->
<g id="node3" class="node">
<title>ConnectionsTable</title>
<path fill="#ffcfb3" stroke="black" stroke-width="2" d="M376.37,-173.45C376.37,-177.07 336.17,-180 286.69,-180 237.2,-180 197,-177.07 197,-173.45 197,-173.45 197,-114.55 197,-114.55 197,-110.93 237.2,-108 286.69,-108 336.17,-108 376.37,-110.93 376.37,-114.55 376.37,-114.55 376.37,-173.45 376.37,-173.45"/>
<path fill="none" stroke="black" stroke-width="2" d="M376.37,-173.45C376.37,-169.84 336.17,-166.91 286.69,-166.91 237.2,-166.91 197,-169.84 197,-173.45"/>
<text text-anchor="middle" x="286.69" y="-148.2" font-family="Arial" font-size="14.00">ConnectionsTable</text>
<text text-anchor="middle" x="286.69" y="-131.4" font-family="Arial" font-size="14.00">(AWS::DynamoDB::Table)</text>
</g>
<!-- ChangeNotificationQueue -->
<g id="node4" class="node">
<title>ChangeNotificationQueue</title>
<path fill="#cce0ac" stroke="black" stroke-width="2" d="M558.85,-180C558.85,-180 406.52,-180 406.52,-180 400.52,-180 394.52,-174 394.52,-168 394.52,-168 394.52,-120 394.52,-120 394.52,-114 400.52,-108 406.52,-108 406.52,-108 558.85,-108 558.85,-108 564.85,-108 570.85,-114 570.85,-120 570.85,-120 570.85,-168 570.85,-168 570.85,-174 564.85,-180 558.85,-180"/>
<text text-anchor="middle" x="482.69" y="-148.2" font-family="Arial" font-size="14.00">ChangeNotificationQueue</text>
<text text-anchor="middle" x="482.69" y="-131.4" font-family="Arial" font-size="14.00">(AWS::SQS::Queue)</text>
</g>
<!-- ChangeNotificationDLQ -->
<g id="node5" class="node">
<title>ChangeNotificationDLQ</title>
<path fill="#cce0ac" stroke="black" stroke-width="2" d="M552.23,-72C552.23,-72 413.15,-72 413.15,-72 407.15,-72 401.15,-66 401.15,-60 401.15,-60 401.15,-12 401.15,-12 401.15,-6 407.15,0 413.15,0 413.15,0 552.23,0 552.23,0 558.23,0 564.23,-6 564.23,-12 564.23,-12 564.23,-60 564.23,-60 564.23,-66 558.23,-72 552.23,-72"/>
<text text-anchor="middle" x="482.69" y="-40.2" font-family="Arial" font-size="14.00">ChangeNotificationDLQ</text>
<text text-anchor="middle" x="482.69" y="-23.4" font-family="Arial" font-size="14.00">(AWS::SQS::Queue)</text>
</g>
<!-- ChangeNotificationQueue&#45;&gt;ChangeNotificationDLQ -->
<g id="edge1" class="edge">
<title>ChangeNotificationQueue&#45;&gt;ChangeNotificationDLQ</title>
<path fill="none" stroke="black" d="M482.69,-107.7C482.69,-99.93 482.69,-91.57 482.69,-83.43"/>
<polygon fill="black" stroke="black" points="486.19,-83.66 482.69,-73.66 479.19,-83.66 486.19,-83.66"/>
</g>
<!-- ConnectionManagementCache -->
<g id="node6" class="node">
<title>ConnectionManagementCache</title>
<path fill="#ffcfb3" stroke="black" stroke-width="2" d="M829.83,-281.45C829.83,-285.07 777.77,-288 713.69,-288 649.6,-288 597.54,-285.07 597.54,-281.45 597.54,-281.45 597.54,-222.55 597.54,-222.55 597.54,-218.93 649.6,-216 713.69,-216 777.77,-216 829.83,-218.93 829.83,-222.55 829.83,-222.55 829.83,-281.45 829.83,-281.45"/>
<path fill="none" stroke="black" stroke-width="2" d="M829.83,-281.45C829.83,-277.84 777.77,-274.91 713.69,-274.91 649.6,-274.91 597.54,-277.84 597.54,-281.45"/>
<text text-anchor="middle" x="713.69" y="-256.2" font-family="Arial" font-size="14.00">ConnectionManagementCache</text>
<text text-anchor="middle" x="713.69" y="-239.4" font-family="Arial" font-size="14.00">(AWS::ElastiCache::CacheCluster)</text>
</g>
<!-- ElastiCacheSecurityGroup -->
<g id="node7" class="node">
<title>ElastiCacheSecurityGroup</title>
<path fill="#e6e6e6" stroke="black" stroke-width="2" d="M796.43,-180C796.43,-180 630.94,-180 630.94,-180 624.94,-180 618.94,-174 618.94,-168 618.94,-168 618.94,-120 618.94,-120 618.94,-114 624.94,-108 630.94,-108 630.94,-108 796.43,-108 796.43,-108 802.43,-108 808.43,-114 808.43,-120 808.43,-120 808.43,-168 808.43,-168 808.43,-174 802.43,-180 796.43,-180"/>
<text text-anchor="middle" x="713.69" y="-148.2" font-family="Arial" font-size="14.00">ElastiCacheSecurityGroup</text>
<text text-anchor="middle" x="713.69" y="-131.4" font-family="Arial" font-size="14.00">(AWS::EC2::SecurityGroup)</text>
</g>
<!-- ConnectionManagementCache&#45;&gt;ElastiCacheSecurityGroup -->
<g id="edge2" class="edge">
<title>ConnectionManagementCache&#45;&gt;ElastiCacheSecurityGroup</title>
<path fill="none" stroke="black" d="M713.69,-215.7C713.69,-207.93 713.69,-199.57 713.69,-191.43"/>
<polygon fill="black" stroke="black" points="717.19,-191.66 713.69,-181.66 710.19,-191.66 717.19,-191.66"/>
</g>
<!-- WebSocketApi -->
<g id="node8" class="node">
<title>WebSocketApi</title>
<path fill="#e78f81" stroke="black" stroke-width="2" d="M1040.49,-180C1040.49,-180 878.88,-180 878.88,-180 872.88,-180 866.88,-174 866.88,-168 866.88,-168 866.88,-120 866.88,-120 866.88,-114 872.88,-108 878.88,-108 878.88,-108 1040.49,-108 1040.49,-108 1046.49,-108 1052.49,-114 1052.49,-120 1052.49,-120 1052.49,-168 1052.49,-168 1052.49,-174 1046.49,-180 1040.49,-180"/>
<text text-anchor="middle" x="959.69" y="-148.2" font-family="Arial" font-size="14.00">WebSocketApi</text>
<text text-anchor="middle" x="959.69" y="-131.4" font-family="Arial" font-size="14.00">(AWS::ApiGatewayV2::Api)</text>
</g>
<!-- WebSocketApiStage -->
<g id="node9" class="node">
<title>WebSocketApiStage</title>
<path fill="#e78f81" stroke="black" stroke-width="2" d="M1037.67,-288C1037.67,-288 859.7,-288 859.7,-288 853.7,-288 847.7,-282 847.7,-276 847.7,-276 847.7,-228 847.7,-228 847.7,-222 853.7,-216 859.7,-216 859.7,-216 1037.67,-216 1037.67,-216 1043.67,-216 1049.67,-222 1049.67,-228 1049.67,-228 1049.67,-276 1049.67,-276 1049.67,-282 1043.67,-288 1037.67,-288"/>
<text text-anchor="middle" x="948.69" y="-256.2" font-family="Arial" font-size="14.00">WebSocketApiStage</text>
<text text-anchor="middle" x="948.69" y="-239.4" font-family="Arial" font-size="14.00">(AWS::ApiGatewayV2::Stage)</text>
</g>
<!-- WebSocketApiStage&#45;&gt;WebSocketApi -->
<g id="edge3" class="edge">
<title>WebSocketApiStage&#45;&gt;WebSocketApi</title>
<path fill="none" stroke="black" d="M952.35,-215.7C953.16,-207.93 954.02,-199.57 954.87,-191.43"/>
<polygon fill="black" stroke="black" points="958.33,-191.96 955.88,-181.65 951.37,-191.23 958.33,-191.96"/>
</g>
<!-- WebSocketAuthorizer -->
<g id="node10" class="node">
<title>WebSocketAuthorizer</title>
<path fill="#e78f81" stroke="black" stroke-width="2" d="M1285.28,-288C1285.28,-288 1080.09,-288 1080.09,-288 1074.09,-288 1068.09,-282 1068.09,-276 1068.09,-276 1068.09,-228 1068.09,-228 1068.09,-222 1074.09,-216 1080.09,-216 1080.09,-216 1285.28,-216 1285.28,-216 1291.28,-216 1297.28,-222 1297.28,-228 1297.28,-228 1297.28,-276 1297.28,-276 1297.28,-282 1291.28,-288 1285.28,-288"/>
<text text-anchor="middle" x="1182.69" y="-256.2" font-family="Arial" font-size="14.00">WebSocketAuthorizer</text>
<text text-anchor="middle" x="1182.69" y="-239.4" font-family="Arial" font-size="14.00">(AWS::ApiGatewayV2::Authorizer)</text>
</g>
<!-- WebSocketAuthorizer&#45;&gt;WebSocketApi -->
<g id="edge4" class="edge">
<title>WebSocketAuthorizer&#45;&gt;WebSocketApi</title>
<path fill="none" stroke="black" d="M1108.12,-215.56C1087.66,-205.83 1065.34,-195.22 1044.36,-185.25"/>
<polygon fill="black" stroke="black" points="1046.08,-182.19 1035.55,-181.06 1043.08,-188.51 1046.08,-182.19"/>
</g>
<!-- WebSocketAuthorizerFunction -->
<g id="node11" class="node">
<title>WebSocketAuthorizerFunction</title>
<path fill="#b7e0ff" stroke="black" stroke-width="2" d="M1273.23,-180C1273.23,-180 1092.14,-180 1092.14,-180 1086.14,-180 1080.14,-174 1080.14,-168 1080.14,-168 1080.14,-120 1080.14,-120 1080.14,-114 1086.14,-108 1092.14,-108 1092.14,-108 1273.23,-108 1273.23,-108 1279.23,-108 1285.23,-114 1285.23,-120 1285.23,-120 1285.23,-168 1285.23,-168 1285.23,-174 1279.23,-180 1273.23,-180"/>
<text text-anchor="middle" x="1182.69" y="-148.2" font-family="Arial" font-size="14.00">WebSocketAuthorizerFunction</text>
<text text-anchor="middle" x="1182.69" y="-131.4" font-family="Arial" font-size="14.00">(AWS::Lambda::Function)</text>
</g>
<!-- WebSocketAuthorizer&#45;&gt;WebSocketAuthorizerFunction -->
<g id="edge5" class="edge">
<title>WebSocketAuthorizer&#45;&gt;WebSocketAuthorizerFunction</title>
<path fill="none" stroke="black" d="M1182.69,-215.7C1182.69,-207.93 1182.69,-199.57 1182.69,-191.43"/>
<polygon fill="black" stroke="black" points="1186.19,-191.66 1182.69,-181.66 1179.19,-191.66 1186.19,-191.66"/>
</g>
<!-- WebSocketHandlerFunction -->
<g id="node12" class="node">
<title>WebSocketHandlerFunction</title>
<path fill="#b7e0ff" stroke="black" stroke-width="2" d="M369.84,-288C369.84,-288 203.53,-288 203.53,-288 197.53,-288 191.53,-282 191.53,-276 191.53,-276 191.53,-228 191.53,-228 191.53,-222 197.53,-216 203.53,-216 203.53,-216 369.84,-216 369.84,-216 375.84,-216 381.84,-222 381.84,-228 381.84,-228 381.84,-276 381.84,-276 381.84,-282 375.84,-288 369.84,-288"/>
<text text-anchor="middle" x="286.69" y="-256.2" font-family="Arial" font-size="14.00">WebSocketHandlerFunction</text>
<text text-anchor="middle" x="286.69" y="-239.4" font-family="Arial" font-size="14.00">(AWS::Lambda::Function)</text>
</g>
<!-- WebSocketHandlerFunction&#45;&gt;SheetsDataTable -->
<g id="edge7" class="edge">
<title>WebSocketHandlerFunction&#45;&gt;SheetsDataTable</title>
<path fill="none" stroke="black" d="M220.81,-215.56C202.42,-205.66 182.31,-194.84 163.5,-184.71"/>
<polygon fill="black" stroke="black" points="165.29,-181.7 154.82,-180.05 161.97,-187.87 165.29,-181.7"/>
</g>
<!-- WebSocketHandlerFunction&#45;&gt;ConnectionsTable -->
<g id="edge6" class="edge">
<title>WebSocketHandlerFunction&#45;&gt;ConnectionsTable</title>
<path fill="none" stroke="black" d="M286.69,-215.7C286.69,-207.93 286.69,-199.57 286.69,-191.43"/>
<polygon fill="black" stroke="black" points="290.19,-191.66 286.69,-181.66 283.19,-191.66 290.19,-191.66"/>
</g>
<!-- WebSocketHandlerFunction&#45;&gt;ChangeNotificationQueue -->
<g id="edge8" class="edge">
<title>WebSocketHandlerFunction&#45;&gt;ChangeNotificationQueue</title>
<path fill="none" stroke="black" d="M352.22,-215.56C369.88,-206.01 389.11,-195.61 407.26,-185.79"/>
<polygon fill="black" stroke="black" points="408.75,-188.97 415.88,-181.13 405.42,-182.81 408.75,-188.97"/>
</g>
<!-- DataSourceHandlerFunction -->
<g id="node13" class="node">
<title>DataSourceHandlerFunction</title>
<path fill="#b7e0ff" stroke="black" stroke-width="2" d="M1496.01,-288C1496.01,-288 1327.36,-288 1327.36,-288 1321.36,-288 1315.36,-282 1315.36,-276 1315.36,-276 1315.36,-228 1315.36,-228 1315.36,-222 1321.36,-216 1327.36,-216 1327.36,-216 1496.01,-216 1496.01,-216 1502.01,-216 1508.01,-222 1508.01,-228 1508.01,-228 1508.01,-276 1508.01,-276 1508.01,-282 1502.01,-288 1496.01,-288"/>
<text text-anchor="middle" x="1411.69" y="-256.2" font-family="Arial" font-size="14.00">DataSourceHandlerFunction</text>
<text text-anchor="middle" x="1411.69" y="-239.4" font-family="Arial" font-size="14.00">(AWS::Lambda::Function)</text>
</g>
</g>
</svg>
